<?xml version="1.0" encoding="UTF-8" standalone="no"?>
<!DOCTYPE svg PUBLIC "-//W3C//DTD SVG 1.1//EN" "http://www.w3.org/Graphics/SVG/1.1/DTD/svg11.dtd">
<svg width="100%" height="100%" viewBox="0 0 200 200" version="1.1" xmlns="http://www.w3.org/2000/svg" xmlns:xlink="http://www.w3.org/1999/xlink" xml:space="preserve" xmlns:serif="http://www.serif.com/" style="fill-rule:evenodd;clip-rule:evenodd;stroke-linejoin:round;stroke-miterlimit:2;">
    <g transform="matrix(1,0,0,1,0,-205)">
        <g id="icon-github-outline" transform="matrix(0.4,0,0,0.4,0,205)" fill="currentColor">
            <g transform="matrix(0.969388,0,0,0.969388,-506.122,7.65306)">
                <path d="M705.389,495L634.094,495C579.402,495 535,450.598 535,395.906L535,104.094C535,49.402 579.402,5 634.094,5L925.906,5C980.598,5 1025,49.402 1025,104.094L1025,395.906C1025,450.598 980.598,495 925.906,495L856.52,495C849.163,492.945 844.211,486.278 844.211,477.035L844.211,427.2C844.211,400.844 833.189,377.843 816.897,367.301C881.109,359.155 925.672,314.591 925.672,255.651C925.672,230.733 917.527,206.294 902.193,188.085C908.422,171.793 907.463,138.25 900.755,125.312C881.588,122.916 855.232,132.979 840.378,146.396C823.127,141.125 803.96,138.25 780.479,138.25C756.999,138.25 737.831,141.125 719.622,146.875C704.288,132.979 678.412,122.916 659.245,125.312C652.057,139.209 651.099,172.751 657.328,188.565C642.953,205.815 634.327,231.692 634.327,255.651C634.327,314.591 678.891,360.113 742.145,367.781C736.394,372.572 730.165,379.76 722.018,387.906C710.997,398.928 703.33,403.24 691.35,403.24C679.371,403.24 669.308,397.011 659.724,383.115C647.265,365.385 635.286,356.759 621.389,356.759C611.806,356.759 602.222,361.072 602.222,366.822C602.222,369.697 604.139,372.093 609.889,372.572C620.91,374.01 626.66,381.677 631.931,394.615C645.348,426.721 664.037,443.971 695.663,443.971C703.33,443.971 711.956,442.055 718.664,439.179L718.664,477.514C718.664,486.221 713.022,492.974 705.389,495ZM697.173,473.509L697.173,465.445C696.667,465.457 696.163,465.462 695.663,465.462C654.708,465.462 629.477,444.477 612.102,402.901L612.028,402.723C610.946,400.066 609.879,397.711 608.648,395.72C608.164,394.937 608,393.999 607.109,393.883L608.104,393.989L597.476,391.519L589.981,386.971L585.839,382.54L582.822,377.249L580.73,366.822L581.64,359.917L584.015,353.96L587.864,348.479L594.185,342.983C600.81,338.511 611.038,335.268 621.389,335.268C628.966,335.268 636.34,336.771 643.551,340.044C624.042,317.21 612.836,288.058 612.836,255.651C612.836,230.746 620.737,204.185 634.017,184.003C630.144,161.948 632.558,130.128 640.156,115.439C643.409,109.149 649.552,104.865 656.579,103.987C677.364,101.389 704.474,109.79 724.2,123.237C741.118,118.947 759.193,116.759 780.479,116.759C801.597,116.759 819.55,118.918 835.776,122.863C855.251,109.822 882.686,101.395 903.421,103.987C910.44,104.864 916.578,109.14 919.834,115.42C926.949,129.142 929.418,160.959 925.52,183.327C939.603,203.987 947.164,229.573 947.164,255.651C947.164,313.814 911.164,360.824 855.11,380.371C861.745,393.824 865.702,409.883 865.702,427.2L865.702,473.509L925.906,473.509C968.736,473.509 1003.51,438.736 1003.51,395.906L1003.51,104.094C1003.51,61.264 968.736,26.491 925.906,26.491L634.094,26.491C591.264,26.491 556.491,61.264 556.491,104.094L556.491,395.906C556.491,438.736 591.264,473.509 634.094,473.509L697.173,473.509ZM674.145,366.424C675.202,367.817 676.256,369.261 677.308,370.758L677.416,370.913C681.929,377.457 685.709,381.749 691.35,381.749C694.604,381.749 697.098,380.863 699.553,379.204C690.508,375.686 682.012,371.399 674.145,366.424Z"/>
            </g>
        </g>
    </g>
</svg>
