<?xml version="1.0" encoding="UTF-8" standalone="no"?>
<!DOCTYPE svg PUBLIC "-//W3C//DTD SVG 1.1//EN" "http://www.w3.org/Graphics/SVG/1.1/DTD/svg11.dtd">
<svg width="100%" height="100%" viewBox="0 0 200 200" version="1.1" xmlns="http://www.w3.org/2000/svg" xmlns:xlink="http://www.w3.org/1999/xlink" xml:space="preserve" xmlns:serif="http://www.serif.com/" style="fill-rule:evenodd;clip-rule:evenodd;stroke-linejoin:round;stroke-miterlimit:2;">
    <g transform="matrix(1,0,0,1,-205,-205)">
        <g id="icon-pixiv-outline" transform="matrix(0.4,0,0,0.4,-78.3333,205)" fill="currentColor">
            <g transform="matrix(0.969388,0,0,0.969388,202.211,7.65306)">
                <path d="M1025,104.094L1025,395.906C1025,450.598 980.598,495 925.906,495L634.094,495C579.402,495 535,450.598 535,395.906L535,104.094C535,49.402 579.402,5 634.094,5L925.906,5C980.598,5 1025,49.402 1025,104.094ZM1003.51,104.094C1003.51,61.264 968.736,26.491 925.906,26.491L634.094,26.491C591.264,26.491 556.491,61.264 556.491,104.094L556.491,395.906C556.491,438.736 591.264,473.509 634.094,473.509L925.906,473.509C968.736,473.509 1003.51,438.736 1003.51,395.906L1003.51,104.094ZM942.426,240.706C942.426,323.126 874.605,390.948 792.185,390.948C776.607,390.948 761.196,388.525 746.49,383.83L746.49,392.543L745.887,398.437L744.163,403.946L737.934,413.164L728.715,419.394L723.207,421.118L717.312,421.721L671.136,421.721L665.286,421.131L659.785,419.427L654.821,416.74L650.514,413.195L646.956,408.892L644.254,403.923L642.539,398.409L641.944,392.543L641.944,119.642L642.547,113.748L644.272,108.239L650.501,99.021L659.72,92.791L665.228,91.067L671.123,90.464L689.991,90.464L697.274,91.38L703.99,94.026L709.852,98.239L714.564,103.86L718.416,109.85C740.817,97.226 766.214,90.491 792.185,90.491C874.593,90.491 942.408,158.293 942.426,240.7L942.426,240.706ZM663.435,392.543C663.435,396.792 666.886,400.23 671.136,400.23L717.312,400.23C721.529,400.23 724.999,396.76 724.999,392.543L724.999,350.536C745.223,362.908 768.477,369.456 792.185,369.456C862.815,369.456 920.935,311.336 920.935,240.706C920.92,170.086 862.805,111.983 792.185,111.983C763.137,111.983 734.927,121.813 712.169,139.866L696.489,115.486C695.074,113.285 692.63,111.952 690.014,111.955L671.123,111.955C666.906,111.955 663.435,115.425 663.435,119.642L663.435,392.543ZM792.198,307.877C755.341,307.877 725.012,277.549 725.012,240.692C725.012,203.835 755.341,173.506 792.198,173.506C829.055,173.506 859.384,203.835 859.384,240.692C859.384,277.549 829.055,307.877 792.198,307.877ZM792.198,286.386C817.266,286.386 837.893,265.759 837.893,240.692C837.893,215.624 817.266,194.997 792.198,194.997C767.131,194.997 746.504,215.624 746.504,240.692C746.504,265.759 767.131,286.386 792.198,286.386Z"/>
            </g>
        </g>
    </g>
</svg>
